<svg xmlns="http://www.w3.org/2000/svg" xmlns:xlink="http://www.w3.org/1999/xlink" width="1920" zoomAndPan="magnify" viewBox="0 0 1440 809.999993" height="1080" preserveAspectRatio="xMidYMid meet" version="1.2"><defs><clipPath id="82d013a858"><path d="M 416.902344 133.125 L 960.652344 133.125 L 960.652344 676.875 L 416.902344 676.875 Z M 416.902344 133.125 "/></clipPath><clipPath id="4a5d81f4b6"><path d="M 927.179688 533.425781 C 936.667969 523.632812 942.527344 510.304688 942.527344 495.625 C 942.527344 465.640625 918.132812 441.25 888.152344 441.25 C 858.167969 441.25 833.777344 465.640625 833.777344 495.625 C 833.777344 510.304688 839.632812 523.632812 849.121094 533.425781 C 829.867188 538.609375 815.652344 556.210938 815.652344 577.078125 L 815.652344 648.449219 C 815.652344 664.121094 828.402344 676.875 844.074219 676.875 L 932.226562 676.875 C 947.898438 676.875 960.652344 664.121094 960.652344 648.449219 L 960.652344 577.078125 C 960.652344 556.210938 946.433594 538.609375 927.179688 533.425781 Z M 888.152344 573.429688 L 864.71875 550 L 911.582031 550 Z M 888.152344 459.375 C 908.140625 459.375 924.402344 475.632812 924.402344 495.625 C 924.402344 515.613281 908.140625 531.875 888.152344 531.875 C 868.160156 531.875 851.902344 515.613281 851.902344 495.625 C 851.902344 475.632812 868.160156 459.375 888.152344 459.375 Z M 833.777344 648.449219 L 833.777344 577.078125 C 833.777344 568.222656 838.046875 560.347656 844.640625 555.40625 C 844.898438 555.753906 845.175781 556.089844 845.492188 556.40625 L 879.089844 590.003906 L 879.089844 658.75 L 844.074219 658.75 C 838.394531 658.75 833.777344 654.128906 833.777344 648.449219 Z M 942.527344 648.449219 C 942.527344 654.128906 937.90625 658.75 932.226562 658.75 L 897.214844 658.75 L 897.214844 590.003906 L 930.808594 556.40625 C 931.125 556.089844 931.402344 555.75 931.660156 555.402344 C 938.253906 560.347656 942.527344 568.222656 942.527344 577.078125 Z M 528.429688 533.425781 C 537.917969 523.632812 543.777344 510.304688 543.777344 495.625 C 543.777344 465.640625 519.382812 441.25 489.402344 441.25 C 459.417969 441.25 435.027344 465.640625 435.027344 495.625 C 435.027344 510.304688 440.882812 523.632812 450.371094 533.425781 C 431.117188 538.609375 416.902344 556.210938 416.902344 577.078125 L 416.902344 648.449219 C 416.902344 664.121094 429.652344 676.875 445.324219 676.875 L 533.476562 676.875 C 549.148438 676.875 561.902344 664.121094 561.902344 648.449219 L 561.902344 577.078125 C 561.902344 556.210938 547.683594 538.609375 528.429688 533.425781 Z M 489.402344 573.429688 L 465.96875 550 L 512.832031 550 Z M 489.402344 459.375 C 509.390625 459.375 525.652344 475.632812 525.652344 495.625 C 525.652344 515.613281 509.390625 531.875 489.402344 531.875 C 469.410156 531.875 453.152344 515.613281 453.152344 495.625 C 453.152344 475.632812 469.410156 459.375 489.402344 459.375 Z M 435.027344 648.449219 L 435.027344 577.078125 C 435.027344 568.222656 439.296875 560.347656 445.890625 555.40625 C 446.148438 555.753906 446.425781 556.089844 446.742188 556.40625 L 480.339844 590.003906 L 480.339844 658.75 L 445.324219 658.75 C 439.644531 658.75 435.027344 654.128906 435.027344 648.449219 Z M 543.777344 648.449219 C 543.777344 654.128906 539.15625 658.75 533.476562 658.75 L 498.464844 658.75 L 498.464844 590.003906 L 532.058594 556.40625 C 532.375 556.089844 532.652344 555.75 532.910156 555.402344 C 539.503906 560.347656 543.777344 568.222656 543.777344 577.078125 Z M 796.417969 601.886719 C 798.816406 606.28125 797.199219 611.785156 792.804688 614.179688 C 762.429688 630.75 729.375 639.621094 694.558594 640.542969 C 692.625 640.59375 690.691406 640.621094 688.761719 640.621094 C 652.390625 640.621094 616.550781 631.523438 584.75 614.167969 C 580.355469 611.773438 578.738281 606.265625 581.132812 601.871094 C 583.53125 597.480469 589.039062 595.859375 593.429688 598.257812 C 624.117188 615.003906 658.917969 623.363281 694.074219 622.425781 C 726 621.574219 756.296875 613.449219 784.125 598.269531 C 788.515625 595.875 794.023438 597.492188 796.417969 601.886719 Z M 471.277344 423.769531 C 470.984375 337.875 521.480469 259.671875 599.925781 224.539062 C 604.496094 222.492188 609.855469 224.535156 611.898438 229.105469 C 613.945312 233.671875 611.902344 239.035156 607.335938 241.078125 C 535.425781 273.289062 489.132812 344.972656 489.402344 423.707031 C 489.417969 428.714844 485.375 432.785156 480.371094 432.800781 C 480.359375 432.800781 480.347656 432.800781 480.339844 432.800781 C 475.347656 432.804688 471.292969 428.765625 471.277344 423.769531 Z M 765.652344 229.105469 C 767.699219 224.539062 773.058594 222.492188 777.628906 224.539062 C 856.074219 259.675781 906.570312 337.878906 906.277344 423.773438 C 906.257812 428.765625 902.207031 432.804688 897.214844 432.804688 C 897.203125 432.804688 897.195312 432.804688 897.183594 432.804688 C 892.179688 432.789062 888.136719 428.714844 888.152344 423.710938 C 888.421875 344.976562 842.128906 273.289062 770.21875 241.082031 C 765.652344 239.035156 763.609375 233.671875 765.652344 229.105469 Z M 815.652344 487.695312 L 815.652344 440.117188 C 815.652344 425.75 803.964844 414.0625 789.597656 414.0625 L 779.402344 414.0625 L 779.402344 403.867188 C 779.402344 389.5 767.714844 377.8125 753.347656 377.8125 L 695.933594 377.8125 L 688.082031 368.75 L 732.851562 368.75 C 748.523438 368.75 761.277344 355.996094 761.277344 340.324219 L 761.277344 268.953125 C 761.277344 248.085938 747.058594 230.484375 727.804688 225.300781 C 737.292969 215.507812 743.152344 202.179688 743.152344 187.5 C 743.152344 157.515625 718.757812 133.125 688.777344 133.125 C 658.792969 133.125 634.402344 157.515625 634.402344 187.5 C 634.402344 202.179688 640.257812 215.507812 649.746094 225.300781 C 630.492188 230.484375 616.277344 248.085938 616.277344 268.953125 L 616.277344 340.324219 C 616.277344 355.882812 628.847656 368.558594 644.363281 368.738281 L 644.695312 378.683594 C 633.566406 381.644531 625.339844 391.8125 625.339844 403.867188 L 625.339844 432.1875 L 587.957031 432.1875 C 573.585938 432.1875 561.902344 443.875 561.902344 458.242188 L 561.902344 505.820312 C 561.902344 517.230469 569.273438 526.949219 579.503906 530.46875 L 571.199219 566.0625 C 570.292969 569.953125 572.035156 573.976562 575.496094 575.972656 C 576.90625 576.789062 578.46875 577.1875 580.023438 577.1875 C 582.273438 577.1875 584.5 576.351562 586.222656 574.734375 L 631.941406 531.875 L 689.910156 531.875 C 701.511719 531.875 711.363281 524.25 714.726562 513.75 L 745.609375 513.75 L 791.328125 556.609375 C 793.050781 558.226562 795.277344 559.0625 797.527344 559.0625 C 799.082031 559.0625 800.644531 558.660156 802.054688 557.847656 C 805.515625 555.851562 807.257812 551.828125 806.351562 547.9375 L 798.046875 512.34375 C 808.277344 508.824219 815.652344 499.105469 815.652344 487.695312 Z M 716.070312 241.875 C 717.699219 241.875 719.292969 242.027344 720.84375 242.300781 L 688.777344 274.371094 L 656.707031 242.304688 C 658.261719 242.027344 659.851562 241.875 661.480469 241.875 Z M 743.152344 340.324219 C 743.152344 346.003906 738.53125 350.625 732.851562 350.625 L 697.839844 350.625 L 697.839844 290.941406 L 736.996094 251.78125 C 740.839844 256.460938 743.152344 262.441406 743.152344 268.953125 Z M 688.777344 151.25 C 708.765625 151.25 725.027344 167.507812 725.027344 187.5 C 725.027344 207.488281 708.765625 223.75 688.777344 223.75 C 668.785156 223.75 652.527344 207.488281 652.527344 187.5 C 652.527344 167.507812 668.785156 151.25 688.777344 151.25 Z M 634.402344 340.324219 L 634.402344 268.953125 C 634.402344 262.441406 636.710938 256.460938 640.554688 251.785156 L 679.714844 290.941406 L 679.714844 350.625 L 672.371094 350.625 L 659.375 335.625 C 656.859375 332.726562 652.789062 331.722656 649.214844 333.125 C 645.644531 334.527344 643.339844 338.027344 643.46875 341.863281 L 643.757812 350.574219 C 638.519531 350.097656 634.402344 345.6875 634.402344 340.324219 Z M 643.464844 403.867188 C 643.464844 399.492188 647.019531 395.9375 651.394531 395.9375 L 654.035156 395.9375 C 656.492188 395.9375 658.84375 394.9375 660.550781 393.175781 C 662.257812 391.40625 663.175781 389.027344 663.09375 386.570312 L 662.433594 366.832031 L 684.949219 392.808594 C 686.667969 394.792969 689.167969 395.9375 691.796875 395.9375 L 753.347656 395.9375 C 757.71875 395.9375 761.277344 399.492188 761.277344 403.867188 L 761.277344 451.445312 C 761.277344 455.816406 757.71875 459.375 753.347656 459.375 L 651.394531 459.375 C 647.019531 459.375 643.464844 455.816406 643.464844 451.445312 Z M 689.910156 513.75 L 628.359375 513.75 C 626.058594 513.75 623.839844 514.625 622.160156 516.199219 L 595.648438 541.058594 L 599.421875 524.871094 C 600.050781 522.175781 599.414062 519.34375 597.699219 517.175781 C 595.976562 515.011719 593.363281 513.75 590.597656 513.75 L 587.957031 513.75 C 583.582031 513.75 580.027344 510.191406 580.027344 505.820312 L 580.027344 458.242188 C 580.027344 453.867188 583.582031 450.3125 587.957031 450.3125 L 625.339844 450.3125 L 625.339844 451.445312 C 625.339844 465.808594 637.023438 477.5 651.394531 477.5 L 697.839844 477.5 L 697.839844 505.820312 C 697.839844 510.191406 694.28125 513.75 689.910156 513.75 Z M 797.527344 487.695312 C 797.527344 492.066406 793.96875 495.625 789.597656 495.625 L 786.953125 495.625 C 784.1875 495.625 781.574219 496.886719 779.855469 499.050781 C 778.132812 501.21875 777.5 504.050781 778.128906 506.746094 L 781.902344 522.933594 L 755.390625 498.074219 C 753.710938 496.5 751.496094 495.625 749.191406 495.625 L 715.964844 495.625 L 715.964844 477.5 L 753.347656 477.5 C 767.714844 477.5 779.402344 465.808594 779.402344 451.445312 L 779.402344 432.1875 L 789.597656 432.1875 C 793.96875 432.1875 797.527344 435.742188 797.527344 440.117188 Z M 589.089844 468.4375 C 589.089844 463.429688 593.144531 459.375 598.152344 459.375 L 616.277344 459.375 C 621.28125 459.375 625.339844 463.429688 625.339844 468.4375 C 625.339844 473.441406 621.28125 477.5 616.277344 477.5 L 598.152344 477.5 C 593.144531 477.5 589.089844 473.441406 589.089844 468.4375 Z M 688.777344 495.625 C 688.777344 500.628906 684.71875 504.6875 679.714844 504.6875 L 598.152344 504.6875 C 593.144531 504.6875 589.089844 500.628906 589.089844 495.625 C 589.089844 490.617188 593.144531 486.5625 598.152344 486.5625 L 679.714844 486.5625 C 684.71875 486.5625 688.777344 490.617188 688.777344 495.625 Z M 688.777344 414.0625 C 688.777344 409.054688 692.832031 405 697.839844 405 L 743.152344 405 C 748.15625 405 752.214844 409.054688 752.214844 414.0625 C 752.214844 419.066406 748.15625 423.125 743.152344 423.125 L 697.839844 423.125 C 692.832031 423.125 688.777344 419.066406 688.777344 414.0625 Z M 652.527344 441.25 C 652.527344 436.242188 656.582031 432.1875 661.589844 432.1875 L 743.152344 432.1875 C 748.15625 432.1875 752.214844 436.242188 752.214844 441.25 C 752.214844 446.253906 748.15625 450.3125 743.152344 450.3125 L 661.589844 450.3125 C 656.582031 450.3125 652.527344 446.253906 652.527344 441.25 Z M 652.527344 441.25 "/></clipPath><linearGradient x1="67.358496" gradientTransform="matrix(1.132812,0,0,1.132812,398.775543,114.998249)" y1="547.358487" x2="547.358504" gradientUnits="userSpaceOnUse" y2="67.358501" id="767d8efb49"><stop style="stop-color:#5ebce5;stop-opacity:1;" offset="0"/><stop style="stop-color:#5ebce5;stop-opacity:1;" offset="0.015625"/><stop style="stop-color:#5fbbe5;stop-opacity:1;" offset="0.0195313"/><stop style="stop-color:#60bae5;stop-opacity:1;" offset="0.0234375"/><stop style="stop-color:#61bae5;stop-opacity:1;" offset="0.0273438"/><stop style="stop-color:#62b9e5;stop-opacity:1;" offset="0.03125"/><stop style="stop-color:#63b8e5;stop-opacity:1;" offset="0.0351562"/><stop style="stop-color:#64b8e5;stop-opacity:1;" offset="0.0390625"/><stop style="stop-color:#64b7e5;stop-opacity:1;" offset="0.0429688"/><stop style="stop-color:#65b6e5;stop-opacity:1;" offset="0.046875"/><stop style="stop-color:#66b6e5;stop-opacity:1;" offset="0.0507813"/><stop style="stop-color:#67b5e5;stop-opacity:1;" offset="0.0546875"/><stop style="stop-color:#68b4e5;stop-opacity:1;" offset="0.0585938"/><stop style="stop-color:#69b4e5;stop-opacity:1;" offset="0.0625"/><stop style="stop-color:#6ab3e5;stop-opacity:1;" offset="0.0664063"/><stop style="stop-color:#6bb2e5;stop-opacity:1;" offset="0.0703125"/><stop style="stop-color:#6cb2e5;stop-opacity:1;" offset="0.0742188"/><stop style="stop-color:#6db1e5;stop-opacity:1;" offset="0.078125"/><stop style="stop-color:#6db0e5;stop-opacity:1;" offset="0.0820313"/><stop style="stop-color:#6eafe5;stop-opacity:1;" offset="0.0859375"/><stop style="stop-color:#6fafe5;stop-opacity:1;" offset="0.0898438"/><stop style="stop-color:#70aee5;stop-opacity:1;" offset="0.09375"/><stop style="stop-color:#71ade5;stop-opacity:1;" offset="0.0976562"/><stop style="stop-color:#72ade5;stop-opacity:1;" offset="0.101563"/><stop style="stop-color:#73ace5;stop-opacity:1;" offset="0.105469"/><stop style="stop-color:#74abe5;stop-opacity:1;" offset="0.109375"/><stop style="stop-color:#75abe5;stop-opacity:1;" offset="0.113281"/><stop style="stop-color:#75aae5;stop-opacity:1;" offset="0.117188"/><stop style="stop-color:#76a9e5;stop-opacity:1;" offset="0.121094"/><stop style="stop-color:#77a9e5;stop-opacity:1;" offset="0.125"/><stop style="stop-color:#78a8e5;stop-opacity:1;" offset="0.128906"/><stop style="stop-color:#79a7e5;stop-opacity:1;" offset="0.132812"/><stop style="stop-color:#7aa6e5;stop-opacity:1;" offset="0.136719"/><stop style="stop-color:#7ba6e5;stop-opacity:1;" offset="0.140625"/><stop style="stop-color:#7ca5e5;stop-opacity:1;" offset="0.144531"/><stop style="stop-color:#7da4e5;stop-opacity:1;" offset="0.148437"/><stop style="stop-color:#7ea4e5;stop-opacity:1;" offset="0.152344"/><stop style="stop-color:#7ea3e5;stop-opacity:1;" offset="0.15625"/><stop style="stop-color:#7fa2e5;stop-opacity:1;" offset="0.160156"/><stop style="stop-color:#80a2e5;stop-opacity:1;" offset="0.164063"/><stop style="stop-color:#81a1e5;stop-opacity:1;" offset="0.167969"/><stop style="stop-color:#82a0e5;stop-opacity:1;" offset="0.171875"/><stop style="stop-color:#83a0e5;stop-opacity:1;" offset="0.175781"/><stop style="stop-color:#849fe5;stop-opacity:1;" offset="0.179688"/><stop style="stop-color:#859ee5;stop-opacity:1;" offset="0.183594"/><stop style="stop-color:#869de5;stop-opacity:1;" offset="0.1875"/><stop style="stop-color:#879de5;stop-opacity:1;" offset="0.191406"/><stop style="stop-color:#879ce5;stop-opacity:1;" offset="0.195312"/><stop style="stop-color:#889be5;stop-opacity:1;" offset="0.199219"/><stop style="stop-color:#899be5;stop-opacity:1;" offset="0.203125"/><stop style="stop-color:#8a9ae5;stop-opacity:1;" offset="0.207031"/><stop style="stop-color:#8b99e6;stop-opacity:1;" offset="0.210938"/><stop style="stop-color:#8c99e6;stop-opacity:1;" offset="0.214844"/><stop style="stop-color:#8d98e6;stop-opacity:1;" offset="0.21875"/><stop style="stop-color:#8e97e6;stop-opacity:1;" offset="0.222656"/><stop style="stop-color:#8f97e6;stop-opacity:1;" offset="0.226563"/><stop style="stop-color:#9096e6;stop-opacity:1;" offset="0.230469"/><stop style="stop-color:#9095e6;stop-opacity:1;" offset="0.234375"/><stop style="stop-color:#9194e6;stop-opacity:1;" offset="0.238281"/><stop style="stop-color:#9294e6;stop-opacity:1;" offset="0.242188"/><stop style="stop-color:#9393e6;stop-opacity:1;" offset="0.246094"/><stop style="stop-color:#9492e6;stop-opacity:1;" offset="0.25"/><stop style="stop-color:#9592e6;stop-opacity:1;" offset="0.253906"/><stop style="stop-color:#9691e6;stop-opacity:1;" offset="0.257812"/><stop style="stop-color:#9790e6;stop-opacity:1;" offset="0.261719"/><stop style="stop-color:#9890e6;stop-opacity:1;" offset="0.265625"/><stop style="stop-color:#988fe6;stop-opacity:1;" offset="0.269531"/><stop style="stop-color:#998ee6;stop-opacity:1;" offset="0.273438"/><stop style="stop-color:#9a8ee6;stop-opacity:1;" offset="0.277344"/><stop style="stop-color:#9b8de6;stop-opacity:1;" offset="0.28125"/><stop style="stop-color:#9c8ce6;stop-opacity:1;" offset="0.285156"/><stop style="stop-color:#9d8be6;stop-opacity:1;" offset="0.289062"/><stop style="stop-color:#9e8be6;stop-opacity:1;" offset="0.292969"/><stop style="stop-color:#9f8ae6;stop-opacity:1;" offset="0.296875"/><stop style="stop-color:#a089e6;stop-opacity:1;" offset="0.300781"/><stop style="stop-color:#a189e6;stop-opacity:1;" offset="0.304688"/><stop style="stop-color:#a188e6;stop-opacity:1;" offset="0.308594"/><stop style="stop-color:#a287e6;stop-opacity:1;" offset="0.3125"/><stop style="stop-color:#a387e6;stop-opacity:1;" offset="0.316406"/><stop style="stop-color:#a486e6;stop-opacity:1;" offset="0.320312"/><stop style="stop-color:#a585e6;stop-opacity:1;" offset="0.324219"/><stop style="stop-color:#a685e6;stop-opacity:1;" offset="0.328125"/><stop style="stop-color:#a784e6;stop-opacity:1;" offset="0.332031"/><stop style="stop-color:#a883e6;stop-opacity:1;" offset="0.335938"/><stop style="stop-color:#a982e6;stop-opacity:1;" offset="0.339844"/><stop style="stop-color:#aa82e6;stop-opacity:1;" offset="0.34375"/><stop style="stop-color:#aa81e6;stop-opacity:1;" offset="0.347656"/><stop style="stop-color:#ab80e6;stop-opacity:1;" offset="0.351562"/><stop style="stop-color:#ac80e6;stop-opacity:1;" offset="0.355469"/><stop style="stop-color:#ad7fe6;stop-opacity:1;" offset="0.359375"/><stop style="stop-color:#ae7ee6;stop-opacity:1;" offset="0.363281"/><stop style="stop-color:#af7ee6;stop-opacity:1;" offset="0.367188"/><stop style="stop-color:#b07de6;stop-opacity:1;" offset="0.371094"/><stop style="stop-color:#b17ce6;stop-opacity:1;" offset="0.375"/><stop style="stop-color:#b27ce6;stop-opacity:1;" offset="0.378906"/><stop style="stop-color:#b37be6;stop-opacity:1;" offset="0.382813"/><stop style="stop-color:#b37ae6;stop-opacity:1;" offset="0.386719"/><stop style="stop-color:#b479e6;stop-opacity:1;" offset="0.390625"/><stop style="stop-color:#b579e6;stop-opacity:1;" offset="0.394531"/><stop style="stop-color:#b678e6;stop-opacity:1;" offset="0.398438"/><stop style="stop-color:#b778e5;stop-opacity:1;" offset="0.402344"/><stop style="stop-color:#b777e3;stop-opacity:1;" offset="0.40625"/><stop style="stop-color:#b777e2;stop-opacity:1;" offset="0.410156"/><stop style="stop-color:#b877e0;stop-opacity:1;" offset="0.414062"/><stop style="stop-color:#b877df;stop-opacity:1;" offset="0.417969"/><stop style="stop-color:#b976de;stop-opacity:1;" offset="0.421875"/><stop style="stop-color:#b976dc;stop-opacity:1;" offset="0.425781"/><stop style="stop-color:#ba76db;stop-opacity:1;" offset="0.429688"/><stop style="stop-color:#ba75d9;stop-opacity:1;" offset="0.433594"/><stop style="stop-color:#bb75d8;stop-opacity:1;" offset="0.4375"/><stop style="stop-color:#bb75d7;stop-opacity:1;" offset="0.441406"/><stop style="stop-color:#bc74d5;stop-opacity:1;" offset="0.445312"/><stop style="stop-color:#bc74d4;stop-opacity:1;" offset="0.449219"/><stop style="stop-color:#bd74d2;stop-opacity:1;" offset="0.453125"/><stop style="stop-color:#bd74d1;stop-opacity:1;" offset="0.457031"/><stop style="stop-color:#bd73d0;stop-opacity:1;" offset="0.460938"/><stop style="stop-color:#be73ce;stop-opacity:1;" offset="0.464844"/><stop style="stop-color:#be73cd;stop-opacity:1;" offset="0.46875"/><stop style="stop-color:#bf72cb;stop-opacity:1;" offset="0.472656"/><stop style="stop-color:#bf72ca;stop-opacity:1;" offset="0.476562"/><stop style="stop-color:#c072c9;stop-opacity:1;" offset="0.480469"/><stop style="stop-color:#c071c7;stop-opacity:1;" offset="0.484375"/><stop style="stop-color:#c171c6;stop-opacity:1;" offset="0.488281"/><stop style="stop-color:#c171c4;stop-opacity:1;" offset="0.492188"/><stop style="stop-color:#c270c3;stop-opacity:1;" offset="0.496094"/><stop style="stop-color:#c270c2;stop-opacity:1;" offset="0.5"/><stop style="stop-color:#c370c0;stop-opacity:1;" offset="0.503906"/><stop style="stop-color:#c370bf;stop-opacity:1;" offset="0.507812"/><stop style="stop-color:#c36fbd;stop-opacity:1;" offset="0.511719"/><stop style="stop-color:#c46fbc;stop-opacity:1;" offset="0.515625"/><stop style="stop-color:#c46fbb;stop-opacity:1;" offset="0.519531"/><stop style="stop-color:#c56eb9;stop-opacity:1;" offset="0.523438"/><stop style="stop-color:#c56eb8;stop-opacity:1;" offset="0.527344"/><stop style="stop-color:#c66eb6;stop-opacity:1;" offset="0.53125"/><stop style="stop-color:#c66db5;stop-opacity:1;" offset="0.535156"/><stop style="stop-color:#c76db4;stop-opacity:1;" offset="0.539062"/><stop style="stop-color:#c76db2;stop-opacity:1;" offset="0.542969"/><stop style="stop-color:#c86db1;stop-opacity:1;" offset="0.546875"/><stop style="stop-color:#c86caf;stop-opacity:1;" offset="0.550781"/><stop style="stop-color:#c86cae;stop-opacity:1;" offset="0.554688"/><stop style="stop-color:#c96cad;stop-opacity:1;" offset="0.558594"/><stop style="stop-color:#c96bab;stop-opacity:1;" offset="0.5625"/><stop style="stop-color:#ca6baa;stop-opacity:1;" offset="0.566406"/><stop style="stop-color:#ca6ba9;stop-opacity:1;" offset="0.570312"/><stop style="stop-color:#cb6aa7;stop-opacity:1;" offset="0.574219"/><stop style="stop-color:#cb6aa6;stop-opacity:1;" offset="0.578125"/><stop style="stop-color:#cc6aa4;stop-opacity:1;" offset="0.582031"/><stop style="stop-color:#cc69a3;stop-opacity:1;" offset="0.585938"/><stop style="stop-color:#cd69a2;stop-opacity:1;" offset="0.589844"/><stop style="stop-color:#cd69a0;stop-opacity:1;" offset="0.59375"/><stop style="stop-color:#ce699f;stop-opacity:1;" offset="0.597656"/><stop style="stop-color:#ce689d;stop-opacity:1;" offset="0.601562"/><stop style="stop-color:#ce689c;stop-opacity:1;" offset="0.605469"/><stop style="stop-color:#cf689b;stop-opacity:1;" offset="0.609375"/><stop style="stop-color:#cf6799;stop-opacity:1;" offset="0.613281"/><stop style="stop-color:#d06798;stop-opacity:1;" offset="0.617188"/><stop style="stop-color:#d06796;stop-opacity:1;" offset="0.621094"/><stop style="stop-color:#d16695;stop-opacity:1;" offset="0.625"/><stop style="stop-color:#d16694;stop-opacity:1;" offset="0.628906"/><stop style="stop-color:#d26692;stop-opacity:1;" offset="0.632812"/><stop style="stop-color:#d26591;stop-opacity:1;" offset="0.636719"/><stop style="stop-color:#d3658f;stop-opacity:1;" offset="0.640625"/><stop style="stop-color:#d3658e;stop-opacity:1;" offset="0.644531"/><stop style="stop-color:#d4658d;stop-opacity:1;" offset="0.648438"/><stop style="stop-color:#d4648b;stop-opacity:1;" offset="0.652344"/><stop style="stop-color:#d4648a;stop-opacity:1;" offset="0.65625"/><stop style="stop-color:#d56488;stop-opacity:1;" offset="0.660156"/><stop style="stop-color:#d56387;stop-opacity:1;" offset="0.664062"/><stop style="stop-color:#d66386;stop-opacity:1;" offset="0.667969"/><stop style="stop-color:#d66384;stop-opacity:1;" offset="0.671875"/><stop style="stop-color:#d76283;stop-opacity:1;" offset="0.675781"/><stop style="stop-color:#d76281;stop-opacity:1;" offset="0.679688"/><stop style="stop-color:#d86280;stop-opacity:1;" offset="0.683594"/><stop style="stop-color:#d8627f;stop-opacity:1;" offset="0.6875"/><stop style="stop-color:#d9617d;stop-opacity:1;" offset="0.691406"/><stop style="stop-color:#d9617c;stop-opacity:1;" offset="0.695312"/><stop style="stop-color:#da617a;stop-opacity:1;" offset="0.699219"/><stop style="stop-color:#da6079;stop-opacity:1;" offset="0.703125"/><stop style="stop-color:#da6078;stop-opacity:1;" offset="0.707031"/><stop style="stop-color:#db6076;stop-opacity:1;" offset="0.710938"/><stop style="stop-color:#db5f75;stop-opacity:1;" offset="0.714844"/><stop style="stop-color:#dc5f73;stop-opacity:1;" offset="0.71875"/><stop style="stop-color:#dc5f72;stop-opacity:1;" offset="0.722656"/><stop style="stop-color:#dd5e71;stop-opacity:1;" offset="0.726562"/><stop style="stop-color:#dd5e6f;stop-opacity:1;" offset="0.730469"/><stop style="stop-color:#de5e6e;stop-opacity:1;" offset="0.734375"/><stop style="stop-color:#de5e6c;stop-opacity:1;" offset="0.738281"/><stop style="stop-color:#df5d6b;stop-opacity:1;" offset="0.742188"/><stop style="stop-color:#df5d6a;stop-opacity:1;" offset="0.746094"/><stop style="stop-color:#df5d68;stop-opacity:1;" offset="0.75"/><stop style="stop-color:#e05c67;stop-opacity:1;" offset="0.753906"/><stop style="stop-color:#e05c65;stop-opacity:1;" offset="0.757812"/><stop style="stop-color:#e15c64;stop-opacity:1;" offset="0.761719"/><stop style="stop-color:#e15b63;stop-opacity:1;" offset="0.765625"/><stop style="stop-color:#e25b62;stop-opacity:1;" offset="0.769531"/><stop style="stop-color:#e25b61;stop-opacity:1;" offset="0.773438"/><stop style="stop-color:#e25b61;stop-opacity:1;" offset="0.78125"/><stop style="stop-color:#e25b61;stop-opacity:1;" offset="0.8125"/><stop style="stop-color:#e25b61;stop-opacity:1;" offset="0.875"/><stop style="stop-color:#e25b61;stop-opacity:1;" offset="1"/></linearGradient></defs><g id="5006b3f8e4"><g clip-rule="nonzero" clip-path="url(#82d013a858)"><g clip-rule="nonzero" clip-path="url(#4a5d81f4b6)"><path style=" stroke:none;fill-rule:nonzero;fill:url(#767d8efb49);" d="M 416.902344 133.125 L 416.902344 676.875 L 960.652344 676.875 L 960.652344 133.125 Z M 416.902344 133.125 "/></g></g></g></svg>